<?xml version="1.0" standalone="no"?>
<!DOCTYPE svg PUBLIC "-//W3C//DTD SVG 20010904//EN"
 "http://www.w3.org/TR/2001/REC-SVG-20010904/DTD/svg10.dtd">
<svg version="1.0" xmlns="http://www.w3.org/2000/svg"
 width="200.000000pt" height="200.000000pt" viewBox="0 0 1000.000000 1137.000000"
 preserveAspectRatio="xMidYMid meet">

<g transform="translate(0.000000,1137.000000) scale(0.100000,-0.100000)"
fill="#000000" stroke="none">
<path d="M260 5685 l0 -5405 4740 0 4740 0 0 5405 0 5405 -4740 0 -4740 0 0
-5405z m8950 0 l0 -4875 -4210 0 -4210 0 0 4875 0 4875 4210 0 4210 0 0 -4875z"/>
<path d="M4856 9736 c-81 -34 -139 -94 -186 -191 -21 -44 -721 -1752 -1557
-3795 l-1518 -3715 1 -100 c0 -119 21 -172 95 -247 57 -57 120 -78 228 -78
122 1 207 44 267 135 20 29 215 501 468 1130 l435 1080 1888 0 1888 0 441
-1076 c268 -655 453 -1093 472 -1120 40 -56 88 -94 158 -126 50 -23 65 -25
147 -21 111 5 165 26 236 93 73 68 94 130 89 255 l-5 95 -1532 3745 c-843
2060 -1543 3763 -1556 3786 -30 50 -100 116 -157 145 -34 18 -63 24 -143 26
-89 3 -107 1 -159 -21z m912 -3103 c441 -1077 804 -1966 808 -1975 6 -17 -75
-18 -1600 -18 -883 0 -1606 3 -1606 7 0 16 1584 3943 1590 3943 4 0 367 -881
808 -1957z"/>
</g>
</svg>
